<svg xmlns="http://www.w3.org/2000/svg" xmlns:xlink="http://www.w3.org/1999/xlink" width="500" zoomAndPan="magnify" viewBox="0 0 375 374.999991" height="500" preserveAspectRatio="xMidYMid meet" version="1.0"><defs><g/><clipPath id="id1"><path d="M 137.972656 128 L 201 128 L 201 174 L 137.972656 174 Z M 137.972656 128 " clip-rule="nonzero"/></clipPath><clipPath id="id2"><path d="M 174 153 L 236.972656 153 L 236.972656 198 L 174 198 Z M 174 153 " clip-rule="nonzero"/></clipPath><clipPath id="id3"><path d="M 177 113.621094 L 222 113.621094 L 222 177 L 177 177 Z M 177 113.621094 " clip-rule="nonzero"/></clipPath><clipPath id="id4"><path d="M 153 149 L 198 149 L 198 212.621094 L 153 212.621094 Z M 153 149 " clip-rule="nonzero"/></clipPath></defs><g clip-path="url(#id1)"><path fill="#ffffff" d="M 190.457031 128.890625 C 185.074219 128.890625 180.65625 133.015625 180.1875 138.273438 L 173.1875 138.273438 C 172.726562 134.425781 169.453125 131.4375 165.480469 131.4375 C 161.191406 131.4375 157.714844 134.914062 157.714844 139.203125 C 157.714844 140.453125 158.011719 141.632812 158.535156 142.675781 L 151.582031 147.269531 C 150.46875 146.046875 148.867188 145.277344 147.082031 145.277344 C 143.726562 145.277344 141.007812 147.996094 141.007812 151.355469 C 141.007812 153.84375 142.503906 155.984375 144.648438 156.921875 L 142.769531 164.019531 C 142.691406 164.011719 142.609375 164.011719 142.527344 164.011719 C 140.007812 164.011719 137.96875 166.050781 137.96875 168.570312 C 137.96875 171.085938 140.007812 173.125 142.527344 173.125 C 145.042969 173.125 147.082031 171.085938 147.082031 168.570312 C 147.082031 166.785156 146.058594 165.242188 144.566406 164.492188 L 146.441406 157.398438 C 146.652344 157.417969 146.867188 157.429688 147.082031 157.429688 C 150.4375 157.429688 153.160156 154.710938 153.160156 151.355469 C 153.160156 150.449219 152.960938 149.589844 152.605469 148.816406 L 159.558594 144.226562 C 160.984375 145.902344 163.105469 146.964844 165.480469 146.964844 C 169.453125 146.964844 172.726562 143.980469 173.1875 140.128906 L 180.1875 140.128906 C 180.65625 145.390625 185.074219 149.511719 190.457031 149.511719 C 196.152344 149.511719 200.769531 144.898438 200.769531 139.203125 C 200.769531 133.507812 196.152344 128.890625 190.457031 128.890625 " fill-opacity="1" fill-rule="nonzero"/></g><g clip-path="url(#id2)"><path fill="#ffffff" d="M 184.476562 197.339844 C 189.859375 197.339844 194.277344 193.21875 194.746094 187.960938 L 201.746094 187.960938 C 202.203125 191.808594 205.480469 194.792969 209.453125 194.792969 C 213.742188 194.792969 217.21875 191.316406 217.21875 187.03125 C 217.21875 185.78125 216.921875 184.601562 216.398438 183.554688 L 223.351562 178.960938 C 224.464844 180.1875 226.066406 180.953125 227.847656 180.953125 C 231.207031 180.953125 233.925781 178.234375 233.925781 174.878906 C 233.925781 172.390625 232.429688 170.25 230.285156 169.308594 L 232.164062 162.214844 C 232.242188 162.21875 232.324219 162.222656 232.40625 162.222656 C 234.921875 162.222656 236.964844 160.179688 236.964844 157.664062 C 236.964844 155.148438 234.921875 153.105469 232.40625 153.105469 C 229.890625 153.105469 227.847656 155.148438 227.847656 157.664062 C 227.847656 159.449219 228.875 160.992188 230.367188 161.738281 L 228.488281 168.835938 C 228.28125 168.8125 228.066406 168.804688 227.847656 168.804688 C 224.496094 168.804688 221.773438 171.523438 221.773438 174.878906 C 221.773438 175.785156 221.972656 176.644531 222.328125 177.414062 L 215.371094 182.007812 C 213.949219 180.332031 211.828125 179.265625 209.453125 179.265625 C 205.480469 179.265625 202.203125 182.25 201.746094 186.101562 L 194.746094 186.101562 C 194.277344 180.84375 189.859375 176.71875 184.476562 176.71875 C 178.78125 176.71875 174.164062 181.335938 174.164062 187.03125 C 174.164062 192.726562 178.78125 197.339844 184.476562 197.339844 " fill-opacity="1" fill-rule="nonzero"/></g><g clip-path="url(#id3)"><path fill="#ffffff" d="M 221.691406 166.105469 C 221.691406 160.726562 217.570312 156.308594 212.308594 155.839844 L 212.308594 148.835938 C 216.160156 148.378906 219.144531 145.101562 219.144531 141.128906 C 219.144531 136.839844 215.667969 133.363281 211.378906 133.363281 C 210.132812 133.363281 208.953125 133.660156 207.90625 134.183594 L 203.3125 127.230469 C 204.535156 126.121094 205.304688 124.515625 205.304688 122.734375 C 205.304688 119.375 202.585938 116.65625 199.230469 116.65625 C 196.738281 116.65625 194.601562 118.15625 193.660156 120.296875 L 186.566406 118.417969 C 186.570312 118.339844 186.570312 118.257812 186.570312 118.175781 C 186.570312 115.660156 184.53125 113.617188 182.015625 113.617188 C 179.496094 113.617188 177.457031 115.660156 177.457031 118.175781 C 177.457031 120.691406 179.496094 122.734375 182.015625 122.734375 C 183.796875 122.734375 185.339844 121.707031 186.089844 120.214844 L 193.1875 122.09375 C 193.164062 122.304688 193.152344 122.515625 193.152344 122.734375 C 193.152344 126.089844 195.875 128.808594 199.230469 128.808594 C 200.132812 128.808594 200.992188 128.609375 201.765625 128.253906 L 206.359375 135.207031 C 204.679688 136.632812 203.617188 138.757812 203.617188 141.128906 C 203.617188 145.101562 206.601562 148.378906 210.453125 148.835938 L 210.453125 155.839844 C 205.191406 156.308594 201.070312 160.726562 201.070312 166.105469 C 201.070312 171.800781 205.6875 176.417969 211.378906 176.417969 C 217.074219 176.417969 221.691406 171.800781 221.691406 166.105469 " fill-opacity="1" fill-rule="nonzero"/></g><g clip-path="url(#id4)"><path fill="#ffffff" d="M 153.242188 160.125 C 153.242188 165.507812 157.363281 169.925781 162.625 170.394531 L 162.625 177.394531 C 158.773438 177.855469 155.789062 181.128906 155.789062 185.105469 C 155.789062 189.390625 159.265625 192.867188 163.550781 192.867188 C 164.800781 192.867188 165.980469 192.570312 167.027344 192.046875 L 171.621094 199 C 170.398438 200.113281 169.628906 201.714844 169.628906 203.5 C 169.628906 206.855469 172.347656 209.574219 175.703125 209.574219 C 178.195312 209.574219 180.332031 208.078125 181.273438 205.933594 L 188.367188 207.8125 C 188.363281 207.894531 188.363281 207.976562 188.363281 208.058594 C 188.363281 210.574219 190.402344 212.613281 192.917969 212.613281 C 195.433594 212.613281 197.476562 210.574219 197.476562 208.058594 C 197.476562 205.539062 195.433594 203.5 192.917969 203.5 C 191.136719 203.5 189.59375 204.523438 188.84375 206.019531 L 181.746094 204.140625 C 181.769531 203.929688 181.78125 203.714844 181.78125 203.5 C 181.78125 200.144531 179.058594 197.425781 175.703125 197.425781 C 174.800781 197.425781 173.941406 197.621094 173.167969 197.976562 L 168.574219 191.023438 C 170.25 189.601562 171.316406 187.476562 171.316406 185.105469 C 171.316406 181.128906 168.332031 177.855469 164.480469 177.394531 L 164.480469 170.394531 C 169.738281 169.925781 173.863281 165.507812 173.863281 160.125 C 173.863281 154.429688 169.246094 149.8125 163.550781 149.8125 C 157.859375 149.8125 153.242188 154.429688 153.242188 160.125 " fill-opacity="1" fill-rule="nonzero"/></g><g fill="#ffffff" fill-opacity="1"><g transform="translate(125.378903, 242.637464)"><g><path d="M 16.59375 0 L 16.5625 -11.21875 L 11 -1.875 L 9.984375 -1.875 L 4.421875 -11.15625 L 4.421875 0 L 2.3125 0 L 2.3125 -15.40625 L 4.109375 -15.40625 L 10.53125 -4.578125 L 16.875 -15.40625 L 18.671875 -15.40625 L 18.703125 0 Z M 16.59375 0 "/></g></g></g><g fill="#ffffff" fill-opacity="1"><g transform="translate(146.385161, 242.637464)"><g><path d="M 12.125 -3.84375 L 3.9375 -3.84375 L 2.25 0 L -0.015625 0 L 6.953125 -15.40625 L 9.125 -15.40625 L 16.125 0 L 13.8125 0 Z M 11.359375 -5.609375 L 8.03125 -13.15625 L 4.703125 -5.609375 Z M 11.359375 -5.609375 "/></g></g></g><g fill="#ffffff" fill-opacity="1"><g transform="translate(162.486288, 242.637464)"><g><path d="M 2.3125 -15.40625 L 8.796875 -15.40625 C 10.421875 -15.40625 11.863281 -15.082031 13.125 -14.4375 C 14.394531 -13.789062 15.375 -12.882812 16.0625 -11.71875 C 16.757812 -10.550781 17.109375 -9.210938 17.109375 -7.703125 C 17.109375 -6.191406 16.757812 -4.851562 16.0625 -3.6875 C 15.375 -2.519531 14.394531 -1.613281 13.125 -0.96875 C 11.863281 -0.320312 10.421875 0 8.796875 0 L 2.3125 0 Z M 8.671875 -1.90625 C 9.910156 -1.90625 11.003906 -2.144531 11.953125 -2.625 C 12.898438 -3.113281 13.628906 -3.796875 14.140625 -4.671875 C 14.660156 -5.546875 14.921875 -6.554688 14.921875 -7.703125 C 14.921875 -8.847656 14.660156 -9.851562 14.140625 -10.71875 C 13.628906 -11.59375 12.898438 -12.269531 11.953125 -12.75 C 11.003906 -13.238281 9.910156 -13.484375 8.671875 -13.484375 L 4.515625 -13.484375 L 4.515625 -1.90625 Z M 8.671875 -1.90625 "/></g></g></g><g fill="#ffffff" fill-opacity="1"><g transform="translate(180.655052, 242.637464)"><g><path d="M 12.609375 0 L 9.28125 -4.734375 C 8.875 -4.703125 8.550781 -4.6875 8.3125 -4.6875 L 4.515625 -4.6875 L 4.515625 0 L 2.3125 0 L 2.3125 -15.40625 L 8.3125 -15.40625 C 10.3125 -15.40625 11.878906 -14.925781 13.015625 -13.96875 C 14.160156 -13.019531 14.734375 -11.707031 14.734375 -10.03125 C 14.734375 -8.84375 14.441406 -7.828125 13.859375 -6.984375 C 13.273438 -6.148438 12.441406 -5.546875 11.359375 -5.171875 L 15 0 Z M 8.25 -6.5625 C 9.644531 -6.5625 10.707031 -6.859375 11.4375 -7.453125 C 12.175781 -8.054688 12.546875 -8.914062 12.546875 -10.03125 C 12.546875 -11.144531 12.175781 -12 11.4375 -12.59375 C 10.707031 -13.1875 9.644531 -13.484375 8.25 -13.484375 L 4.515625 -13.484375 L 4.515625 -6.5625 Z M 8.25 -6.5625 "/></g></g></g><g fill="#ffffff" fill-opacity="1"><g transform="translate(196.646201, 242.637464)"><g><path d="M 2.3125 -15.40625 L 4.515625 -15.40625 L 4.515625 0 L 2.3125 0 Z M 2.3125 -15.40625 "/></g></g></g><g fill="#ffffff" fill-opacity="1"><g transform="translate(203.464991, 242.637464)"><g><path d="M 12.984375 -7.78125 L 15.09375 -7.78125 L 15.09375 -1.78125 C 14.332031 -1.15625 13.441406 -0.671875 12.421875 -0.328125 C 11.410156 0.00390625 10.359375 0.171875 9.265625 0.171875 C 7.710938 0.171875 6.3125 -0.164062 5.0625 -0.84375 C 3.8125 -1.53125 2.832031 -2.46875 2.125 -3.65625 C 1.414062 -4.851562 1.0625 -6.203125 1.0625 -7.703125 C 1.0625 -9.191406 1.414062 -10.535156 2.125 -11.734375 C 2.832031 -12.941406 3.8125 -13.882812 5.0625 -14.5625 C 6.320312 -15.238281 7.738281 -15.578125 9.3125 -15.578125 C 10.539062 -15.578125 11.65625 -15.375 12.65625 -14.96875 C 13.664062 -14.5625 14.519531 -13.972656 15.21875 -13.203125 L 13.859375 -11.84375 C 12.628906 -13.03125 11.140625 -13.625 9.390625 -13.625 C 8.222656 -13.625 7.171875 -13.367188 6.234375 -12.859375 C 5.304688 -12.347656 4.578125 -11.640625 4.046875 -10.734375 C 3.515625 -9.835938 3.25 -8.828125 3.25 -7.703125 C 3.25 -6.585938 3.515625 -5.578125 4.046875 -4.671875 C 4.578125 -3.773438 5.304688 -3.066406 6.234375 -2.546875 C 7.171875 -2.035156 8.21875 -1.78125 9.375 -1.78125 C 10.75 -1.78125 11.953125 -2.109375 12.984375 -2.765625 Z M 12.984375 -7.78125 "/></g></g></g><g fill="#ffffff" fill-opacity="1"><g transform="translate(220.445962, 242.637464)"><g><path d="M 12.125 -3.84375 L 3.9375 -3.84375 L 2.25 0 L -0.015625 0 L 6.953125 -15.40625 L 9.125 -15.40625 L 16.125 0 L 13.8125 0 Z M 11.359375 -5.609375 L 8.03125 -13.15625 L 4.703125 -5.609375 Z M 11.359375 -5.609375 "/></g></g></g><g fill="#ffffff" fill-opacity="1"><g transform="translate(236.547088, 242.637464)"><g><path d="M 2.3125 -15.40625 L 4.515625 -15.40625 L 4.515625 -1.90625 L 12.84375 -1.90625 L 12.84375 0 L 2.3125 0 Z M 2.3125 -15.40625 "/></g></g></g><g fill="#ffffff" fill-opacity="1"><g transform="translate(109.246615, 258.782649)"><g><path d="M 2.8125 -7.078125 L 0.046875 -7.078125 L 0.046875 -8.078125 L 6.734375 -8.078125 L 6.734375 -7.078125 L 3.953125 -7.078125 L 3.953125 0 L 2.8125 0 Z M 2.8125 -7.078125 "/></g></g></g><g fill="#ffffff" fill-opacity="1"><g transform="translate(117.528202, 258.782649)"><g><path d="M 7.078125 -1 L 7.078125 0 L 1.21875 0 L 1.21875 -8.078125 L 6.921875 -8.078125 L 6.921875 -7.078125 L 2.359375 -7.078125 L 2.359375 -4.59375 L 6.421875 -4.59375 L 6.421875 -3.609375 L 2.359375 -3.609375 L 2.359375 -1 Z M 7.078125 -1 "/></g></g></g><g fill="#ffffff" fill-opacity="1"><g transform="translate(126.766869, 258.782649)"><g><path d="M 4.828125 0.09375 C 4.015625 0.09375 3.28125 -0.0820312 2.625 -0.4375 C 1.976562 -0.800781 1.46875 -1.296875 1.09375 -1.921875 C 0.726562 -2.546875 0.546875 -3.253906 0.546875 -4.046875 C 0.546875 -4.828125 0.726562 -5.53125 1.09375 -6.15625 C 1.46875 -6.78125 1.984375 -7.269531 2.640625 -7.625 C 3.296875 -7.988281 4.03125 -8.171875 4.84375 -8.171875 C 5.46875 -8.171875 6.039062 -8.066406 6.5625 -7.859375 C 7.09375 -7.648438 7.539062 -7.335938 7.90625 -6.921875 L 7.15625 -6.1875 C 6.550781 -6.820312 5.796875 -7.140625 4.890625 -7.140625 C 4.285156 -7.140625 3.738281 -7.003906 3.25 -6.734375 C 2.769531 -6.472656 2.390625 -6.101562 2.109375 -5.625 C 1.835938 -5.15625 1.703125 -4.628906 1.703125 -4.046875 C 1.703125 -3.453125 1.835938 -2.921875 2.109375 -2.453125 C 2.390625 -1.984375 2.769531 -1.613281 3.25 -1.34375 C 3.738281 -1.070312 4.285156 -0.9375 4.890625 -0.9375 C 5.785156 -0.9375 6.539062 -1.257812 7.15625 -1.90625 L 7.90625 -1.171875 C 7.539062 -0.753906 7.09375 -0.4375 6.5625 -0.21875 C 6.03125 -0.0078125 5.453125 0.09375 4.828125 0.09375 Z M 4.828125 0.09375 "/></g></g></g><g fill="#ffffff" fill-opacity="1"><g transform="translate(136.616698, 258.782649)"><g><path d="M 8.15625 -8.078125 L 8.15625 0 L 7.015625 0 L 7.015625 -3.609375 L 2.359375 -3.609375 L 2.359375 0 L 1.21875 0 L 1.21875 -8.078125 L 2.359375 -8.078125 L 2.359375 -4.609375 L 7.015625 -4.609375 L 7.015625 -8.078125 Z M 8.15625 -8.078125 "/></g></g></g><g fill="#ffffff" fill-opacity="1"><g transform="translate(147.492796, 258.782649)"><g/></g></g><g fill="#ffffff" fill-opacity="1"><g transform="translate(152.107465, 258.782649)"><g><path d="M 1.21875 -8.5625 L 2.234375 -8.5625 L 2.234375 2.234375 L 1.21875 2.234375 Z M 1.21875 -8.5625 "/></g></g></g><g fill="#ffffff" fill-opacity="1"><g transform="translate(157.068067, 258.782649)"><g/></g></g><g fill="#ffffff" fill-opacity="1"><g transform="translate(161.682736, 258.782649)"><g><path d="M 3.5625 0.09375 C 2.957031 0.09375 2.367188 0 1.796875 -0.1875 C 1.234375 -0.375 0.789062 -0.617188 0.46875 -0.921875 L 0.90625 -1.828125 C 1.207031 -1.546875 1.597656 -1.316406 2.078125 -1.140625 C 2.566406 -0.972656 3.0625 -0.890625 3.5625 -0.890625 C 4.238281 -0.890625 4.738281 -1.003906 5.0625 -1.234375 C 5.394531 -1.460938 5.5625 -1.765625 5.5625 -2.140625 C 5.5625 -2.410156 5.46875 -2.632812 5.28125 -2.8125 C 5.101562 -2.988281 4.878906 -3.117188 4.609375 -3.203125 C 4.347656 -3.296875 3.976562 -3.398438 3.5 -3.515625 C 2.894531 -3.660156 2.40625 -3.804688 2.03125 -3.953125 C 1.65625 -4.109375 1.332031 -4.335938 1.0625 -4.640625 C 0.800781 -4.941406 0.671875 -5.347656 0.671875 -5.859375 C 0.671875 -6.296875 0.78125 -6.6875 1 -7.03125 C 1.226562 -7.375 1.570312 -7.648438 2.03125 -7.859375 C 2.5 -8.066406 3.078125 -8.171875 3.765625 -8.171875 C 4.242188 -8.171875 4.710938 -8.109375 5.171875 -7.984375 C 5.628906 -7.867188 6.023438 -7.691406 6.359375 -7.453125 L 5.984375 -6.53125 C 5.640625 -6.75 5.273438 -6.910156 4.890625 -7.015625 C 4.503906 -7.128906 4.128906 -7.1875 3.765625 -7.1875 C 3.109375 -7.1875 2.613281 -7.066406 2.28125 -6.828125 C 1.957031 -6.597656 1.796875 -6.289062 1.796875 -5.90625 C 1.796875 -5.632812 1.890625 -5.410156 2.078125 -5.234375 C 2.265625 -5.066406 2.492188 -4.929688 2.765625 -4.828125 C 3.035156 -4.734375 3.40625 -4.632812 3.875 -4.53125 C 4.488281 -4.382812 4.976562 -4.238281 5.34375 -4.09375 C 5.71875 -3.945312 6.035156 -3.722656 6.296875 -3.421875 C 6.566406 -3.117188 6.703125 -2.710938 6.703125 -2.203125 C 6.703125 -1.785156 6.582031 -1.398438 6.34375 -1.046875 C 6.113281 -0.691406 5.765625 -0.410156 5.296875 -0.203125 C 4.828125 -0.00390625 4.25 0.09375 3.5625 0.09375 Z M 3.5625 0.09375 "/></g></g></g><g fill="#ffffff" fill-opacity="1"><g transform="translate(170.356373, 258.782649)"><g><path d="M 4.859375 0.09375 C 4.046875 0.09375 3.3125 -0.0820312 2.65625 -0.4375 C 2 -0.800781 1.484375 -1.296875 1.109375 -1.921875 C 0.734375 -2.554688 0.546875 -3.265625 0.546875 -4.046875 C 0.546875 -4.816406 0.734375 -5.515625 1.109375 -6.140625 C 1.484375 -6.773438 2 -7.269531 2.65625 -7.625 C 3.3125 -7.988281 4.046875 -8.171875 4.859375 -8.171875 C 5.671875 -8.171875 6.398438 -7.988281 7.046875 -7.625 C 7.703125 -7.269531 8.210938 -6.78125 8.578125 -6.15625 C 8.953125 -5.53125 9.140625 -4.828125 9.140625 -4.046875 C 9.140625 -3.253906 8.953125 -2.546875 8.578125 -1.921875 C 8.210938 -1.296875 7.703125 -0.800781 7.046875 -0.4375 C 6.398438 -0.0820312 5.671875 0.09375 4.859375 0.09375 Z M 4.859375 -0.9375 C 5.453125 -0.9375 5.984375 -1.070312 6.453125 -1.34375 C 6.929688 -1.613281 7.304688 -1.984375 7.578125 -2.453125 C 7.847656 -2.921875 7.984375 -3.453125 7.984375 -4.046875 C 7.984375 -4.628906 7.847656 -5.15625 7.578125 -5.625 C 7.304688 -6.101562 6.929688 -6.472656 6.453125 -6.734375 C 5.984375 -7.003906 5.453125 -7.140625 4.859375 -7.140625 C 4.265625 -7.140625 3.726562 -7.003906 3.25 -6.734375 C 2.769531 -6.472656 2.390625 -6.101562 2.109375 -5.625 C 1.835938 -5.15625 1.703125 -4.628906 1.703125 -4.046875 C 1.703125 -3.453125 1.835938 -2.921875 2.109375 -2.453125 C 2.390625 -1.984375 2.769531 -1.613281 3.25 -1.34375 C 3.726562 -1.070312 4.265625 -0.9375 4.859375 -0.9375 Z M 4.859375 -0.9375 "/></g></g></g><g fill="#ffffff" fill-opacity="1"><g transform="translate(181.555343, 258.782649)"><g><path d="M 4.828125 0.09375 C 4.015625 0.09375 3.28125 -0.0820312 2.625 -0.4375 C 1.976562 -0.800781 1.46875 -1.296875 1.09375 -1.921875 C 0.726562 -2.546875 0.546875 -3.253906 0.546875 -4.046875 C 0.546875 -4.828125 0.726562 -5.53125 1.09375 -6.15625 C 1.46875 -6.78125 1.984375 -7.269531 2.640625 -7.625 C 3.296875 -7.988281 4.03125 -8.171875 4.84375 -8.171875 C 5.46875 -8.171875 6.039062 -8.066406 6.5625 -7.859375 C 7.09375 -7.648438 7.539062 -7.335938 7.90625 -6.921875 L 7.15625 -6.1875 C 6.550781 -6.820312 5.796875 -7.140625 4.890625 -7.140625 C 4.285156 -7.140625 3.738281 -7.003906 3.25 -6.734375 C 2.769531 -6.472656 2.390625 -6.101562 2.109375 -5.625 C 1.835938 -5.15625 1.703125 -4.628906 1.703125 -4.046875 C 1.703125 -3.453125 1.835938 -2.921875 2.109375 -2.453125 C 2.390625 -1.984375 2.769531 -1.613281 3.25 -1.34375 C 3.738281 -1.070312 4.285156 -0.9375 4.890625 -0.9375 C 5.785156 -0.9375 6.539062 -1.257812 7.15625 -1.90625 L 7.90625 -1.171875 C 7.539062 -0.753906 7.09375 -0.4375 6.5625 -0.21875 C 6.03125 -0.0078125 5.453125 0.09375 4.828125 0.09375 Z M 4.828125 0.09375 "/></g></g></g><g fill="#ffffff" fill-opacity="1"><g transform="translate(191.40517, 258.782649)"><g><path d="M 1.21875 -8.078125 L 2.359375 -8.078125 L 2.359375 0 L 1.21875 0 Z M 1.21875 -8.078125 "/></g></g></g><g fill="#ffffff" fill-opacity="1"><g transform="translate(196.492617, 258.782649)"><g><path d="M 6.359375 -2.015625 L 2.0625 -2.015625 L 1.171875 0 L -0.015625 0 L 3.65625 -8.078125 L 4.796875 -8.078125 L 8.46875 0 L 7.25 0 Z M 5.953125 -2.9375 L 4.21875 -6.90625 L 2.46875 -2.9375 Z M 5.953125 -2.9375 "/></g></g></g><g fill="#ffffff" fill-opacity="1"><g transform="translate(206.446224, 258.782649)"><g><path d="M 1.21875 -8.078125 L 2.359375 -8.078125 L 2.359375 -1 L 6.75 -1 L 6.75 0 L 1.21875 0 Z M 1.21875 -8.078125 "/></g></g></g><g fill="#ffffff" fill-opacity="1"><g transform="translate(214.808525, 258.782649)"><g/></g></g><g fill="#ffffff" fill-opacity="1"><g transform="translate(219.423194, 258.782649)"><g><path d="M 8.703125 0 L 8.6875 -5.890625 L 5.765625 -0.984375 L 5.25 -0.984375 L 2.328125 -5.859375 L 2.328125 0 L 1.21875 0 L 1.21875 -8.078125 L 2.15625 -8.078125 L 5.53125 -2.40625 L 8.859375 -8.078125 L 9.796875 -8.078125 L 9.8125 0 Z M 8.703125 0 "/></g></g></g><g fill="#ffffff" fill-opacity="1"><g transform="translate(231.948248, 258.782649)"><g><path d="M 7.078125 -1 L 7.078125 0 L 1.21875 0 L 1.21875 -8.078125 L 6.921875 -8.078125 L 6.921875 -7.078125 L 2.359375 -7.078125 L 2.359375 -4.59375 L 6.421875 -4.59375 L 6.421875 -3.609375 L 2.359375 -3.609375 L 2.359375 -1 Z M 7.078125 -1 "/></g></g></g><g fill="#ffffff" fill-opacity="1"><g transform="translate(241.186914, 258.782649)"><g><path d="M 1.21875 -8.078125 L 4.625 -8.078125 C 5.476562 -8.078125 6.234375 -7.90625 6.890625 -7.5625 C 7.554688 -7.226562 8.070312 -6.753906 8.4375 -6.140625 C 8.800781 -5.535156 8.984375 -4.835938 8.984375 -4.046875 C 8.984375 -3.253906 8.800781 -2.550781 8.4375 -1.9375 C 8.070312 -1.320312 7.554688 -0.84375 6.890625 -0.5 C 6.234375 -0.164062 5.476562 0 4.625 0 L 1.21875 0 Z M 4.546875 -1 C 5.203125 -1 5.773438 -1.125 6.265625 -1.375 C 6.765625 -1.632812 7.148438 -1.992188 7.421875 -2.453125 C 7.691406 -2.910156 7.828125 -3.441406 7.828125 -4.046875 C 7.828125 -4.640625 7.691406 -5.164062 7.421875 -5.625 C 7.148438 -6.082031 6.765625 -6.4375 6.265625 -6.6875 C 5.773438 -6.945312 5.203125 -7.078125 4.546875 -7.078125 L 2.359375 -7.078125 L 2.359375 -1 Z M 4.546875 -1 "/></g></g></g><g fill="#ffffff" fill-opacity="1"><g transform="translate(252.224442, 258.782649)"><g><path d="M 1.21875 -8.078125 L 2.359375 -8.078125 L 2.359375 0 L 1.21875 0 Z M 1.21875 -8.078125 "/></g></g></g><g fill="#ffffff" fill-opacity="1"><g transform="translate(257.31189, 258.782649)"><g><path d="M 6.359375 -2.015625 L 2.0625 -2.015625 L 1.171875 0 L -0.015625 0 L 3.65625 -8.078125 L 4.796875 -8.078125 L 8.46875 0 L 7.25 0 Z M 5.953125 -2.9375 L 4.21875 -6.90625 L 2.46875 -2.9375 Z M 5.953125 -2.9375 "/></g></g></g><g fill="#ffffff" fill-opacity="1"><g transform="translate(174.37303, 271.527815)"><g><path d="M 5.9375 -0.953125 L 5.9375 0 L 0.40625 0 L 0.40625 -0.75 L 3.546875 -3.765625 C 3.921875 -4.140625 4.175781 -4.457031 4.3125 -4.71875 C 4.445312 -4.988281 4.515625 -5.257812 4.515625 -5.53125 C 4.515625 -5.9375 4.367188 -6.25 4.078125 -6.46875 C 3.796875 -6.695312 3.394531 -6.8125 2.875 -6.8125 C 2.019531 -6.8125 1.363281 -6.53125 0.90625 -5.96875 L 0.15625 -6.625 C 0.457031 -6.988281 0.847656 -7.269531 1.328125 -7.46875 C 1.816406 -7.675781 2.363281 -7.78125 2.96875 -7.78125 C 3.78125 -7.78125 4.421875 -7.585938 4.890625 -7.203125 C 5.367188 -6.828125 5.609375 -6.304688 5.609375 -5.640625 C 5.609375 -5.234375 5.519531 -4.84375 5.34375 -4.46875 C 5.164062 -4.101562 4.832031 -3.6875 4.34375 -3.21875 L 1.984375 -0.953125 Z M 5.9375 -0.953125 "/></g></g></g><g fill="#ffffff" fill-opacity="1"><g transform="translate(180.682569, 271.527815)"><g><path d="M 3.671875 0.09375 C 3.066406 0.09375 2.523438 -0.0625 2.046875 -0.375 C 1.578125 -0.6875 1.207031 -1.140625 0.9375 -1.734375 C 0.664062 -2.328125 0.53125 -3.03125 0.53125 -3.84375 C 0.53125 -4.664062 0.664062 -5.375 0.9375 -5.96875 C 1.207031 -6.5625 1.578125 -7.007812 2.046875 -7.3125 C 2.523438 -7.625 3.066406 -7.78125 3.671875 -7.78125 C 4.273438 -7.78125 4.8125 -7.625 5.28125 -7.3125 C 5.757812 -7.007812 6.132812 -6.5625 6.40625 -5.96875 C 6.675781 -5.375 6.8125 -4.664062 6.8125 -3.84375 C 6.8125 -3.03125 6.675781 -2.328125 6.40625 -1.734375 C 6.132812 -1.140625 5.757812 -0.6875 5.28125 -0.375 C 4.8125 -0.0625 4.273438 0.09375 3.671875 0.09375 Z M 3.671875 -0.890625 C 4.285156 -0.890625 4.773438 -1.140625 5.140625 -1.640625 C 5.515625 -2.148438 5.703125 -2.882812 5.703125 -3.84375 C 5.703125 -4.8125 5.515625 -5.546875 5.140625 -6.046875 C 4.773438 -6.554688 4.285156 -6.8125 3.671875 -6.8125 C 3.046875 -6.8125 2.546875 -6.554688 2.171875 -6.046875 C 1.804688 -5.546875 1.625 -4.8125 1.625 -3.84375 C 1.625 -2.882812 1.804688 -2.148438 2.171875 -1.640625 C 2.546875 -1.140625 3.046875 -0.890625 3.671875 -0.890625 Z M 3.671875 -0.890625 "/></g></g></g><g fill="#ffffff" fill-opacity="1"><g transform="translate(188.014386, 271.527815)"><g><path d="M 5.9375 -0.953125 L 5.9375 0 L 0.40625 0 L 0.40625 -0.75 L 3.546875 -3.765625 C 3.921875 -4.140625 4.175781 -4.457031 4.3125 -4.71875 C 4.445312 -4.988281 4.515625 -5.257812 4.515625 -5.53125 C 4.515625 -5.9375 4.367188 -6.25 4.078125 -6.46875 C 3.796875 -6.695312 3.394531 -6.8125 2.875 -6.8125 C 2.019531 -6.8125 1.363281 -6.53125 0.90625 -5.96875 L 0.15625 -6.625 C 0.457031 -6.988281 0.847656 -7.269531 1.328125 -7.46875 C 1.816406 -7.675781 2.363281 -7.78125 2.96875 -7.78125 C 3.78125 -7.78125 4.421875 -7.585938 4.890625 -7.203125 C 5.367188 -6.828125 5.609375 -6.304688 5.609375 -5.640625 C 5.609375 -5.234375 5.519531 -4.84375 5.34375 -4.46875 C 5.164062 -4.101562 4.832031 -3.6875 4.34375 -3.21875 L 1.984375 -0.953125 Z M 5.9375 -0.953125 "/></g></g></g><g fill="#ffffff" fill-opacity="1"><g transform="translate(194.323926, 271.527815)"><g><path d="M 5.9375 -0.953125 L 5.9375 0 L 0.40625 0 L 0.40625 -0.75 L 3.546875 -3.765625 C 3.921875 -4.140625 4.175781 -4.457031 4.3125 -4.71875 C 4.445312 -4.988281 4.515625 -5.257812 4.515625 -5.53125 C 4.515625 -5.9375 4.367188 -6.25 4.078125 -6.46875 C 3.796875 -6.695312 3.394531 -6.8125 2.875 -6.8125 C 2.019531 -6.8125 1.363281 -6.53125 0.90625 -5.96875 L 0.15625 -6.625 C 0.457031 -6.988281 0.847656 -7.269531 1.328125 -7.46875 C 1.816406 -7.675781 2.363281 -7.78125 2.96875 -7.78125 C 3.78125 -7.78125 4.421875 -7.585938 4.890625 -7.203125 C 5.367188 -6.828125 5.609375 -6.304688 5.609375 -5.640625 C 5.609375 -5.234375 5.519531 -4.84375 5.34375 -4.46875 C 5.164062 -4.101562 4.832031 -3.6875 4.34375 -3.21875 L 1.984375 -0.953125 Z M 5.9375 -0.953125 "/></g></g></g><g fill="#ffffff" fill-opacity="1"><g transform="translate(96.162097, 101.972153)"><g><path d="M 1.15625 -7.703125 L 4.40625 -7.703125 C 5.21875 -7.703125 5.9375 -7.539062 6.5625 -7.21875 C 7.195312 -6.894531 7.6875 -6.441406 8.03125 -5.859375 C 8.382812 -5.273438 8.5625 -4.601562 8.5625 -3.84375 C 8.5625 -3.09375 8.382812 -2.425781 8.03125 -1.84375 C 7.6875 -1.257812 7.195312 -0.804688 6.5625 -0.484375 C 5.9375 -0.160156 5.21875 0 4.40625 0 L 1.15625 0 Z M 4.328125 -0.953125 C 4.953125 -0.953125 5.5 -1.070312 5.96875 -1.3125 C 6.445312 -1.5625 6.8125 -1.898438 7.0625 -2.328125 C 7.320312 -2.765625 7.453125 -3.269531 7.453125 -3.84375 C 7.453125 -4.414062 7.320312 -4.921875 7.0625 -5.359375 C 6.8125 -5.796875 6.445312 -6.132812 5.96875 -6.375 C 5.5 -6.625 4.953125 -6.75 4.328125 -6.75 L 2.25 -6.75 L 2.25 -0.953125 Z M 4.328125 -0.953125 "/></g></g></g><g fill="#ffffff" fill-opacity="1"><g transform="translate(105.241679, 101.972153)"><g><path d="M 6.75 -0.953125 L 6.75 0 L 1.15625 0 L 1.15625 -7.703125 L 6.59375 -7.703125 L 6.59375 -6.75 L 2.25 -6.75 L 2.25 -4.375 L 6.109375 -4.375 L 6.109375 -3.4375 L 2.25 -3.4375 L 2.25 -0.953125 Z M 6.75 -0.953125 "/></g></g></g><g fill="#ffffff" fill-opacity="1"><g transform="translate(112.606467, 101.972153)"><g><path d="M 3.40625 0.09375 C 2.820312 0.09375 2.257812 0.00390625 1.71875 -0.171875 C 1.175781 -0.359375 0.753906 -0.59375 0.453125 -0.875 L 0.859375 -1.734375 C 1.148438 -1.472656 1.523438 -1.257812 1.984375 -1.09375 C 2.441406 -0.925781 2.914062 -0.84375 3.40625 -0.84375 C 4.039062 -0.84375 4.515625 -0.953125 4.828125 -1.171875 C 5.140625 -1.390625 5.296875 -1.675781 5.296875 -2.03125 C 5.296875 -2.300781 5.207031 -2.515625 5.03125 -2.671875 C 4.863281 -2.835938 4.65625 -2.960938 4.40625 -3.046875 C 4.15625 -3.140625 3.796875 -3.242188 3.328125 -3.359375 C 2.753906 -3.492188 2.285156 -3.628906 1.921875 -3.765625 C 1.566406 -3.910156 1.265625 -4.125 1.015625 -4.40625 C 0.765625 -4.695312 0.640625 -5.09375 0.640625 -5.59375 C 0.640625 -6 0.742188 -6.363281 0.953125 -6.6875 C 1.171875 -7.019531 1.5 -7.285156 1.9375 -7.484375 C 2.382812 -7.679688 2.9375 -7.78125 3.59375 -7.78125 C 4.039062 -7.78125 4.484375 -7.722656 4.921875 -7.609375 C 5.367188 -7.492188 5.75 -7.328125 6.0625 -7.109375 L 5.703125 -6.21875 C 5.378906 -6.425781 5.03125 -6.582031 4.65625 -6.6875 C 4.289062 -6.800781 3.9375 -6.859375 3.59375 -6.859375 C 2.96875 -6.859375 2.5 -6.742188 2.1875 -6.515625 C 1.875 -6.285156 1.71875 -5.988281 1.71875 -5.625 C 1.71875 -5.363281 1.804688 -5.148438 1.984375 -4.984375 C 2.160156 -4.816406 2.378906 -4.6875 2.640625 -4.59375 C 2.898438 -4.507812 3.253906 -4.414062 3.703125 -4.3125 C 4.273438 -4.175781 4.738281 -4.035156 5.09375 -3.890625 C 5.445312 -3.753906 5.75 -3.539062 6 -3.25 C 6.25 -2.96875 6.375 -2.582031 6.375 -2.09375 C 6.375 -1.695312 6.265625 -1.332031 6.046875 -1 C 5.828125 -0.664062 5.492188 -0.398438 5.046875 -0.203125 C 4.597656 -0.00390625 4.050781 0.09375 3.40625 0.09375 Z M 3.40625 0.09375 "/></g></g></g><g fill="#ffffff" fill-opacity="1"><g transform="translate(119.432638, 101.972153)"><g><path d="M 1.15625 -7.703125 L 2.25 -7.703125 L 2.25 0 L 1.15625 0 Z M 1.15625 -7.703125 "/></g></g></g><g fill="#ffffff" fill-opacity="1"><g transform="translate(122.84023, 101.972153)"><g><path d="M 6.484375 -3.890625 L 7.546875 -3.890625 L 7.546875 -0.890625 C 7.160156 -0.578125 6.710938 -0.332031 6.203125 -0.15625 C 5.703125 0.0078125 5.175781 0.09375 4.625 0.09375 C 3.851562 0.09375 3.15625 -0.078125 2.53125 -0.421875 C 1.90625 -0.765625 1.414062 -1.234375 1.0625 -1.828125 C 0.707031 -2.429688 0.53125 -3.101562 0.53125 -3.84375 C 0.53125 -4.59375 0.707031 -5.269531 1.0625 -5.875 C 1.414062 -6.476562 1.90625 -6.945312 2.53125 -7.28125 C 3.15625 -7.613281 3.863281 -7.78125 4.65625 -7.78125 C 5.269531 -7.78125 5.828125 -7.679688 6.328125 -7.484375 C 6.828125 -7.285156 7.253906 -6.988281 7.609375 -6.59375 L 6.9375 -5.921875 C 6.3125 -6.515625 5.566406 -6.8125 4.703125 -6.8125 C 4.109375 -6.8125 3.578125 -6.679688 3.109375 -6.421875 C 2.648438 -6.171875 2.285156 -5.820312 2.015625 -5.375 C 1.753906 -4.925781 1.625 -4.414062 1.625 -3.84375 C 1.625 -3.289062 1.753906 -2.785156 2.015625 -2.328125 C 2.285156 -1.878906 2.648438 -1.523438 3.109375 -1.265625 C 3.578125 -1.015625 4.101562 -0.890625 4.6875 -0.890625 C 5.375 -0.890625 5.972656 -1.054688 6.484375 -1.390625 Z M 6.484375 -3.890625 "/></g></g></g><g fill="#ffffff" fill-opacity="1"><g transform="translate(131.32623, 101.972153)"><g><path d="M 7.78125 -7.703125 L 7.78125 0 L 6.875 0 L 2.25 -5.734375 L 2.25 0 L 1.15625 0 L 1.15625 -7.703125 L 2.0625 -7.703125 L 6.671875 -1.953125 L 6.671875 -7.703125 Z M 7.78125 -7.703125 "/></g></g></g><g fill="#ffffff" fill-opacity="1"><g transform="translate(140.251923, 101.972153)"><g><path d="M 6.75 -0.953125 L 6.75 0 L 1.15625 0 L 1.15625 -7.703125 L 6.59375 -7.703125 L 6.59375 -6.75 L 2.25 -6.75 L 2.25 -4.375 L 6.109375 -4.375 L 6.109375 -3.4375 L 2.25 -3.4375 L 2.25 -0.953125 Z M 6.75 -0.953125 "/></g></g></g><g fill="#ffffff" fill-opacity="1"><g transform="translate(147.61671, 101.972153)"><g><path d="M 1.15625 -7.703125 L 4.40625 -7.703125 C 5.21875 -7.703125 5.9375 -7.539062 6.5625 -7.21875 C 7.195312 -6.894531 7.6875 -6.441406 8.03125 -5.859375 C 8.382812 -5.273438 8.5625 -4.601562 8.5625 -3.84375 C 8.5625 -3.09375 8.382812 -2.425781 8.03125 -1.84375 C 7.6875 -1.257812 7.195312 -0.804688 6.5625 -0.484375 C 5.9375 -0.160156 5.21875 0 4.40625 0 L 1.15625 0 Z M 4.328125 -0.953125 C 4.953125 -0.953125 5.5 -1.070312 5.96875 -1.3125 C 6.445312 -1.5625 6.8125 -1.898438 7.0625 -2.328125 C 7.320312 -2.765625 7.453125 -3.269531 7.453125 -3.84375 C 7.453125 -4.414062 7.320312 -4.921875 7.0625 -5.359375 C 6.8125 -5.796875 6.445312 -6.132812 5.96875 -6.375 C 5.5 -6.625 4.953125 -6.75 4.328125 -6.75 L 2.25 -6.75 L 2.25 -0.953125 Z M 4.328125 -0.953125 "/></g></g></g><g fill="#ffffff" fill-opacity="1"><g transform="translate(156.696292, 101.972153)"><g/></g></g><g fill="#ffffff" fill-opacity="1"><g transform="translate(159.653205, 101.972153)"><g><path d="M 6.0625 -1.921875 L 1.96875 -1.921875 L 1.125 0 L -0.015625 0 L 3.46875 -7.703125 L 4.5625 -7.703125 L 8.0625 0 L 6.90625 0 Z M 5.671875 -2.8125 L 4.015625 -6.578125 L 2.359375 -2.8125 Z M 5.671875 -2.8125 "/></g></g></g><g fill="#ffffff" fill-opacity="1"><g transform="translate(167.699511, 101.972153)"><g><path d="M 7.78125 -7.703125 L 7.78125 0 L 6.875 0 L 2.25 -5.734375 L 2.25 0 L 1.15625 0 L 1.15625 -7.703125 L 2.0625 -7.703125 L 6.671875 -1.953125 L 6.671875 -7.703125 Z M 7.78125 -7.703125 "/></g></g></g><g fill="#ffffff" fill-opacity="1"><g transform="translate(176.625204, 101.972153)"><g><path d="M 1.15625 -7.703125 L 4.40625 -7.703125 C 5.21875 -7.703125 5.9375 -7.539062 6.5625 -7.21875 C 7.195312 -6.894531 7.6875 -6.441406 8.03125 -5.859375 C 8.382812 -5.273438 8.5625 -4.601562 8.5625 -3.84375 C 8.5625 -3.09375 8.382812 -2.425781 8.03125 -1.84375 C 7.6875 -1.257812 7.195312 -0.804688 6.5625 -0.484375 C 5.9375 -0.160156 5.21875 0 4.40625 0 L 1.15625 0 Z M 4.328125 -0.953125 C 4.953125 -0.953125 5.5 -1.070312 5.96875 -1.3125 C 6.445312 -1.5625 6.8125 -1.898438 7.0625 -2.328125 C 7.320312 -2.765625 7.453125 -3.269531 7.453125 -3.84375 C 7.453125 -4.414062 7.320312 -4.921875 7.0625 -5.359375 C 6.8125 -5.796875 6.445312 -6.132812 5.96875 -6.375 C 5.5 -6.625 4.953125 -6.75 4.328125 -6.75 L 2.25 -6.75 L 2.25 -0.953125 Z M 4.328125 -0.953125 "/></g></g></g><g fill="#ffffff" fill-opacity="1"><g transform="translate(185.704785, 101.972153)"><g/></g></g><g fill="#ffffff" fill-opacity="1"><g transform="translate(188.661698, 101.972153)"><g><path d="M 1.15625 -7.703125 L 4.40625 -7.703125 C 5.21875 -7.703125 5.9375 -7.539062 6.5625 -7.21875 C 7.195312 -6.894531 7.6875 -6.441406 8.03125 -5.859375 C 8.382812 -5.273438 8.5625 -4.601562 8.5625 -3.84375 C 8.5625 -3.09375 8.382812 -2.425781 8.03125 -1.84375 C 7.6875 -1.257812 7.195312 -0.804688 6.5625 -0.484375 C 5.9375 -0.160156 5.21875 0 4.40625 0 L 1.15625 0 Z M 4.328125 -0.953125 C 4.953125 -0.953125 5.5 -1.070312 5.96875 -1.3125 C 6.445312 -1.5625 6.8125 -1.898438 7.0625 -2.328125 C 7.320312 -2.765625 7.453125 -3.269531 7.453125 -3.84375 C 7.453125 -4.414062 7.320312 -4.921875 7.0625 -5.359375 C 6.8125 -5.796875 6.445312 -6.132812 5.96875 -6.375 C 5.5 -6.625 4.953125 -6.75 4.328125 -6.75 L 2.25 -6.75 L 2.25 -0.953125 Z M 4.328125 -0.953125 "/></g></g></g><g fill="#ffffff" fill-opacity="1"><g transform="translate(197.74128, 101.972153)"><g><path d="M 6.75 -0.953125 L 6.75 0 L 1.15625 0 L 1.15625 -7.703125 L 6.59375 -7.703125 L 6.59375 -6.75 L 2.25 -6.75 L 2.25 -4.375 L 6.109375 -4.375 L 6.109375 -3.4375 L 2.25 -3.4375 L 2.25 -0.953125 Z M 6.75 -0.953125 "/></g></g></g><g fill="#ffffff" fill-opacity="1"><g transform="translate(205.106067, 101.972153)"><g><path d="M 7.84375 -7.703125 L 4.46875 0 L 3.375 0 L -0.015625 -7.703125 L 1.171875 -7.703125 L 3.953125 -1.375 L 6.75 -7.703125 Z M 7.84375 -7.703125 "/></g></g></g><g fill="#ffffff" fill-opacity="1"><g transform="translate(212.932533, 101.972153)"><g><path d="M 6.75 -0.953125 L 6.75 0 L 1.15625 0 L 1.15625 -7.703125 L 6.59375 -7.703125 L 6.59375 -6.75 L 2.25 -6.75 L 2.25 -4.375 L 6.109375 -4.375 L 6.109375 -3.4375 L 2.25 -3.4375 L 2.25 -0.953125 Z M 6.75 -0.953125 "/></g></g></g><g fill="#ffffff" fill-opacity="1"><g transform="translate(220.29732, 101.972153)"><g><path d="M 1.15625 -7.703125 L 2.25 -7.703125 L 2.25 -0.953125 L 6.421875 -0.953125 L 6.421875 0 L 1.15625 0 Z M 1.15625 -7.703125 "/></g></g></g><g fill="#ffffff" fill-opacity="1"><g transform="translate(226.826701, 101.972153)"><g><path d="M 4.625 0.09375 C 3.851562 0.09375 3.15625 -0.078125 2.53125 -0.421875 C 1.90625 -0.765625 1.414062 -1.234375 1.0625 -1.828125 C 0.707031 -2.429688 0.53125 -3.101562 0.53125 -3.84375 C 0.53125 -4.59375 0.707031 -5.265625 1.0625 -5.859375 C 1.414062 -6.460938 1.90625 -6.929688 2.53125 -7.265625 C 3.15625 -7.609375 3.851562 -7.78125 4.625 -7.78125 C 5.394531 -7.78125 6.09375 -7.609375 6.71875 -7.265625 C 7.34375 -6.929688 7.832031 -6.460938 8.1875 -5.859375 C 8.539062 -5.265625 8.71875 -4.59375 8.71875 -3.84375 C 8.71875 -3.101562 8.539062 -2.429688 8.1875 -1.828125 C 7.832031 -1.234375 7.34375 -0.765625 6.71875 -0.421875 C 6.09375 -0.078125 5.394531 0.09375 4.625 0.09375 Z M 4.625 -0.890625 C 5.195312 -0.890625 5.707031 -1.015625 6.15625 -1.265625 C 6.601562 -1.523438 6.957031 -1.878906 7.21875 -2.328125 C 7.476562 -2.785156 7.609375 -3.289062 7.609375 -3.84375 C 7.609375 -4.40625 7.476562 -4.910156 7.21875 -5.359375 C 6.957031 -5.804688 6.601562 -6.160156 6.15625 -6.421875 C 5.707031 -6.679688 5.195312 -6.8125 4.625 -6.8125 C 4.0625 -6.8125 3.550781 -6.679688 3.09375 -6.421875 C 2.632812 -6.160156 2.273438 -5.804688 2.015625 -5.359375 C 1.753906 -4.910156 1.625 -4.40625 1.625 -3.84375 C 1.625 -3.289062 1.753906 -2.785156 2.015625 -2.328125 C 2.273438 -1.878906 2.632812 -1.523438 3.09375 -1.265625 C 3.550781 -1.015625 4.0625 -0.890625 4.625 -0.890625 Z M 4.625 -0.890625 "/></g></g></g><g fill="#ffffff" fill-opacity="1"><g transform="translate(236.060171, 101.972153)"><g><path d="M 4.15625 -7.703125 C 5.15625 -7.703125 5.941406 -7.460938 6.515625 -6.984375 C 7.085938 -6.503906 7.375 -5.847656 7.375 -5.015625 C 7.375 -4.179688 7.085938 -3.523438 6.515625 -3.046875 C 5.941406 -2.566406 5.15625 -2.328125 4.15625 -2.328125 L 2.25 -2.328125 L 2.25 0 L 1.15625 0 L 1.15625 -7.703125 Z M 4.125 -3.28125 C 4.820312 -3.28125 5.351562 -3.429688 5.71875 -3.734375 C 6.082031 -4.035156 6.265625 -4.460938 6.265625 -5.015625 C 6.265625 -5.578125 6.082031 -6.003906 5.71875 -6.296875 C 5.351562 -6.597656 4.820312 -6.75 4.125 -6.75 L 2.25 -6.75 L 2.25 -3.28125 Z M 4.125 -3.28125 "/></g></g></g><g fill="#ffffff" fill-opacity="1"><g transform="translate(243.996556, 101.972153)"><g><path d="M 6.75 -0.953125 L 6.75 0 L 1.15625 0 L 1.15625 -7.703125 L 6.59375 -7.703125 L 6.59375 -6.75 L 2.25 -6.75 L 2.25 -4.375 L 6.109375 -4.375 L 6.109375 -3.4375 L 2.25 -3.4375 L 2.25 -0.953125 Z M 6.75 -0.953125 "/></g></g></g><g fill="#ffffff" fill-opacity="1"><g transform="translate(251.361344, 101.972153)"><g><path d="M 1.15625 -7.703125 L 4.40625 -7.703125 C 5.21875 -7.703125 5.9375 -7.539062 6.5625 -7.21875 C 7.195312 -6.894531 7.6875 -6.441406 8.03125 -5.859375 C 8.382812 -5.273438 8.5625 -4.601562 8.5625 -3.84375 C 8.5625 -3.09375 8.382812 -2.425781 8.03125 -1.84375 C 7.6875 -1.257812 7.195312 -0.804688 6.5625 -0.484375 C 5.9375 -0.160156 5.21875 0 4.40625 0 L 1.15625 0 Z M 4.328125 -0.953125 C 4.953125 -0.953125 5.5 -1.070312 5.96875 -1.3125 C 6.445312 -1.5625 6.8125 -1.898438 7.0625 -2.328125 C 7.320312 -2.765625 7.453125 -3.269531 7.453125 -3.84375 C 7.453125 -4.414062 7.320312 -4.921875 7.0625 -5.359375 C 6.8125 -5.796875 6.445312 -6.132812 5.96875 -6.375 C 5.5 -6.625 4.953125 -6.75 4.328125 -6.75 L 2.25 -6.75 L 2.25 -0.953125 Z M 4.328125 -0.953125 "/></g></g></g><g fill="#ffffff" fill-opacity="1"><g transform="translate(260.440926, 101.972153)"><g/></g></g><g fill="#ffffff" fill-opacity="1"><g transform="translate(263.397838, 101.972153)"><g><path d="M 6.34375 -4 C 6.78125 -3.875 7.128906 -3.644531 7.390625 -3.3125 C 7.648438 -2.988281 7.78125 -2.578125 7.78125 -2.078125 C 7.78125 -1.410156 7.523438 -0.894531 7.015625 -0.53125 C 6.515625 -0.175781 5.785156 0 4.828125 0 L 1.15625 0 L 1.15625 -7.703125 L 4.609375 -7.703125 C 5.484375 -7.703125 6.160156 -7.523438 6.640625 -7.171875 C 7.128906 -6.816406 7.375 -6.328125 7.375 -5.703125 C 7.375 -5.304688 7.28125 -4.957031 7.09375 -4.65625 C 6.90625 -4.363281 6.65625 -4.144531 6.34375 -4 Z M 2.25 -6.8125 L 2.25 -4.34375 L 4.515625 -4.34375 C 5.078125 -4.34375 5.507812 -4.445312 5.8125 -4.65625 C 6.113281 -4.863281 6.265625 -5.171875 6.265625 -5.578125 C 6.265625 -5.984375 6.113281 -6.289062 5.8125 -6.5 C 5.507812 -6.707031 5.078125 -6.8125 4.515625 -6.8125 Z M 4.78125 -0.890625 C 5.40625 -0.890625 5.875 -0.988281 6.1875 -1.1875 C 6.507812 -1.394531 6.671875 -1.722656 6.671875 -2.171875 C 6.671875 -3.023438 6.039062 -3.453125 4.78125 -3.453125 L 2.25 -3.453125 L 2.25 -0.890625 Z M 4.78125 -0.890625 "/></g></g></g><g fill="#ffffff" fill-opacity="1"><g transform="translate(271.718951, 101.972153)"><g><path d="M 4.109375 -2.65625 L 4.109375 0 L 3.015625 0 L 3.015625 -2.6875 L -0.046875 -7.703125 L 1.140625 -7.703125 L 3.59375 -3.640625 L 6.078125 -7.703125 L 7.15625 -7.703125 Z M 4.109375 -2.65625 "/></g></g></g></svg>